<?xml version="1.0" encoding="UTF-8"?>
<svg id="Layer_1" data-name="Layer 1" xmlns="http://www.w3.org/2000/svg" viewBox="0 0 130 45">
  <defs>
    <style>
      .cls-1 {
        fill: #000;
        stroke-width: 0px;
      }
    </style>
  </defs>
  <path class="cls-1" d="M70.94,28.51c0-6.5-4.21-10.18-8.79-10.18s-8.97,3.49-8.97,10.24,4.45,10.36,8.91,10.36,8.85-3.86,8.85-10.42ZM44.4,28.51c0-10.06,7.81-16.25,16.11-16.25,4.82,0,8.36,2.08,10.07,3.99h.24V0h8.79v44.14h-8.05l-.61-3.56h-.3c-1.4,1.65-5.31,4.41-10.62,4.41-8.24,0-15.62-6.68-15.62-16.49ZM106.64,9.32h.24l6.65,17.41h-13.54l6.65-17.41h0ZM101.82,0l-18.24,44.14h9.94l3.97-10.12h18.48l4.03,10.12h10L111.7,0h-9.88ZM16.71,37.09c8.05,0,15.98-2.21,15.98-14.53s-7.93-15.51-15.98-15.51h-7.5v30.04h7.5ZM0,0h18.3c12.87,0,23.61,7.23,23.61,22.56s-10.74,21.58-23.3,21.58H0V0ZM84.89,15.08c4.15-.8,5.06-2.82,5.06-4.29,0-1.78-1.4-2.21-2.93-2.45-1.52-.24-3.29-1.47-3.29-4.05,0-2.21,1.71-3.86,4.09-3.86,2.99,0,5.43,2.7,5.43,7.05,0,5.83-3.9,8.64-8.17,9.2l-.18-1.59h0Z"/>
</svg>