<?xml version="1.0" standalone="no"?>
<!DOCTYPE svg PUBLIC "-//W3C//DTD SVG 20010904//EN"
 "http://www.w3.org/TR/2001/REC-SVG-20010904/DTD/svg10.dtd">
<svg version="1.0" xmlns="http://www.w3.org/2000/svg"
 width="1080.000000pt" height="1080.000000pt" viewBox="0 0 1080.000000 1080.000000"
 preserveAspectRatio="xMidYMid meet">
<metadata>
Created by potrace 1.14, written by Peter Selinger 2001-2017
</metadata>
<g transform="translate(0.000000,1080.000000) scale(0.100000,-0.100000)"
fill="#000000" stroke="none">
<path d="M830 5504 l0 -1595 788 4 c672 3 802 6 892 21 405 64 690 192 921
413 243 233 379 533 419 922 42 419 -52 855 -247 1147 -256 384 -673 615
-1215 673 -59 7 -384 11 -828 11 l-730 0 0 -1596z m1505 1063 c455 -84 718
-320 815 -730 72 -305 44 -689 -69 -922 -97 -202 -256 -337 -486 -414 -176
-58 -231 -64 -682 -68 l-413 -5 0 1082 0 1082 378 -5 c269 -4 400 -10 457 -20z"/>
<path d="M5940 6515 c0 -355 -4 -585 -9 -585 -5 0 -20 15 -32 33 -46 64 -135
150 -182 174 -78 39 -190 63 -357 75 -376 28 -675 -62 -934 -279 -327 -274
-468 -765 -351 -1218 86 -330 296 -594 590 -740 325 -162 669 -164 990 -5 93
46 265 170 265 191 0 5 7 9 15 9 8 0 15 -3 15 -7 0 -4 10 -62 22 -130 l21
-123 291 2 291 3 3 1593 2 1592 -320 0 -320 0 0 -585z m-426 -773 c236 -86
389 -294 427 -577 38 -292 -69 -594 -264 -741 -125 -93 -224 -128 -367 -128
-167 1 -306 59 -425 179 -83 84 -127 155 -166 267 -74 217 -60 473 38 678 77
160 219 282 388 332 87 26 287 20 369 -10z"/>
<path d="M7520 5514 c-360 -872 -656 -1590 -658 -1595 -2 -5 141 -9 356 -9
l360 0 102 258 c55 141 120 305 143 364 l42 108 666 0 667 0 145 -362 145
-363 362 -3 c341 -2 361 -1 356 15 -3 10 -300 727 -659 1593 l-653 1575 -360
2 -359 3 -655 -1586z m1260 290 c129 -339 237 -620 238 -625 2 -5 -199 -9
-483 -9 -386 0 -486 3 -482 13 156 421 475 1237 482 1237 6 0 116 -277 245
-616z"/>
<path d="M7065 7057 c-63 -21 -100 -44 -129 -78 -105 -124 -77 -343 54 -434
22 -15 80 -38 130 -51 150 -39 207 -95 198 -193 -13 -128 -128 -232 -302 -272
l-58 -14 6 -59 c3 -33 7 -61 9 -62 2 -2 30 4 62 12 191 50 364 193 455 379 51
103 70 179 70 280 0 267 -176 494 -389 502 -36 2 -84 -3 -106 -10z"/>
</g>
</svg>
